<svg width="26" height="26" viewBox="0 0 26 26" fill="none" xmlns="http://www.w3.org/2000/svg">
<path d="M18.3957 0.0493164H6.82775C3.06287 0.0493164 0 3.11218 0 6.87707V18.4452C0 22.2099 3.06287 25.2727 6.82775 25.2727H18.3959C22.1606 25.2727 25.2234 22.2099 25.2234 18.4452V6.87707C25.2234 3.11218 22.1606 0.0493164 18.3957 0.0493164V0.0493164ZM23.7447 18.4452C23.7447 21.3945 21.3452 23.794 18.3957 23.794H6.82775C3.87823 23.794 1.4787 21.3945 1.4787 18.4452V6.87707C1.4787 3.92755 3.87823 1.52802 6.82775 1.52802H18.3959C21.3452 1.52802 23.7447 3.92755 23.7447 6.87707V18.4452Z" fill="white"/>
<path d="M12.6117 5.76416C8.80869 5.76416 5.71484 8.85801 5.71484 12.661C5.71484 16.464 8.80869 19.5578 12.6117 19.5578C16.4147 19.5578 19.5085 16.464 19.5085 12.661C19.5085 8.85801 16.4147 5.76416 12.6117 5.76416ZM12.6117 18.0791C9.62425 18.0791 7.19355 15.6486 7.19355 12.661C7.19355 9.67357 9.62425 7.24286 12.6117 7.24286C15.5993 7.24286 18.0298 9.67357 18.0298 12.661C18.0298 15.6486 15.5993 18.0791 12.6117 18.0791Z" fill="white"/>
<path d="M19.6735 3.31494C18.5496 3.31494 17.6355 4.22922 17.6355 5.35288C17.6355 6.47672 18.5496 7.391 19.6735 7.391C20.7973 7.391 21.7116 6.47672 21.7116 5.35288C21.7116 4.22903 20.7973 3.31494 19.6735 3.31494ZM19.6735 5.9121C19.3652 5.9121 19.1142 5.66116 19.1142 5.35288C19.1142 5.0444 19.3652 4.79365 19.6735 4.79365C19.9819 4.79365 20.2329 5.0444 20.2329 5.35288C20.2329 5.66116 19.9819 5.9121 19.6735 5.9121Z" fill="white"/>
</svg>
