<svg width="196" height="46" viewBox="0 0 196 46" fill="none" xmlns="http://www.w3.org/2000/svg">
<path d="M6.87602 9.83989H10.8L17.028 38.9999H13.176L11.844 31.6559H5.90402L4.50002 38.9999H0.684021L6.87602 9.83989ZM11.304 28.7399L8.85602 15.5999L6.44402 28.7399H11.304ZM27.5108 39.3239C25.4708 39.3239 23.8748 38.9159 22.7228 38.0999C21.5948 37.2839 20.8148 36.1439 20.3828 34.6799C19.9508 33.2159 19.7348 31.3799 19.7348 29.1719V9.83989H23.6228V29.3519C23.6228 31.5599 23.8748 33.2399 24.3788 34.3919C24.9068 35.5439 25.9508 36.1199 27.5108 36.1199C29.0708 36.1199 30.1028 35.5439 30.6068 34.3919C31.1348 33.2399 31.3988 31.5599 31.3988 29.3519V9.83989H35.2508V29.1719C35.2508 31.3799 35.0348 33.2159 34.6028 34.6799C34.1708 36.1439 33.3908 37.2839 32.2628 38.0999C31.1348 38.9159 29.5508 39.3239 27.5108 39.3239ZM42.7376 12.8639H37.8056V9.83989H51.5936V12.8639H46.8056V38.9999H42.7376V12.8639ZM61.8567 39.3239C59.0007 39.3239 56.9487 38.5199 55.7007 36.9119C54.4767 35.2799 53.8647 32.9279 53.8647 29.8559V18.8039C53.8647 15.7799 54.4887 13.4879 55.7367 11.9279C56.9847 10.3679 59.0247 9.58789 61.8567 9.58789C64.6887 9.58789 66.7167 10.3799 67.9407 11.9639C69.1887 13.5239 69.8127 15.8039 69.8127 18.8039V29.8919C69.8127 32.9159 69.1887 35.2439 67.9407 36.8759C66.6927 38.5079 64.6647 39.3239 61.8567 39.3239ZM61.8567 36.1199C63.3687 36.1199 64.3887 35.6759 64.9167 34.7879C65.4447 33.8999 65.7087 32.5559 65.7087 30.7559V17.9759C65.7087 16.1999 65.4447 14.8919 64.9167 14.0519C64.3887 13.1879 63.3687 12.7559 61.8567 12.7559C60.3207 12.7559 59.2887 13.1879 58.7607 14.0519C58.2327 14.8919 57.9687 16.1999 57.9687 17.9759V30.7559C57.9687 32.5559 58.2327 33.8999 58.7607 34.7879C59.2887 35.6759 60.3207 36.1199 61.8567 36.1199ZM82.0375 9.83989H93.3415V12.8639H86.1055V22.5119H91.9735V25.3919H86.1055V36.0839H93.4135V38.9999H82.0375V9.83989ZM100.982 23.7359L95.0057 9.83989H98.7857L103.214 20.1359L107.246 9.83989H111.026L104.906 24.0599L111.314 38.9999H107.534L102.782 28.0199L98.6777 38.9999H94.8977L100.982 23.7359ZM114.065 9.83989H121.301C123.821 9.83989 125.645 10.5239 126.773 11.8919C127.925 13.2599 128.501 15.2639 128.501 17.9039C128.501 20.2799 127.889 22.1279 126.665 23.4479C125.441 24.7679 123.665 25.4279 121.337 25.4279H118.133V38.9999H114.065V9.83989ZM120.005 22.5119C121.205 22.5119 122.129 22.3799 122.777 22.1159C123.449 21.8519 123.929 21.3959 124.217 20.7479C124.505 20.0999 124.649 19.1639 124.649 17.9399C124.649 16.4519 124.541 15.3599 124.325 14.6639C124.109 13.9679 123.677 13.4759 123.029 13.1879C122.405 12.8999 121.409 12.7559 120.041 12.7559H118.133V22.5119H120.005ZM131.362 9.83989H137.23C140.182 9.83989 142.342 10.4519 143.71 11.6759C145.102 12.8759 145.798 14.8439 145.798 17.5799C145.798 21.3239 144.598 23.5919 142.198 24.3839L146.338 38.9999H142.414L138.598 25.3199H135.43V38.9999H131.362V9.83989ZM136.978 22.4039C138.73 22.4039 139.978 22.0559 140.722 21.3599C141.49 20.6639 141.874 19.4039 141.874 17.5799C141.874 16.3799 141.742 15.4439 141.478 14.7719C141.214 14.0759 140.746 13.5719 140.074 13.2599C139.402 12.9239 138.454 12.7559 137.23 12.7559H135.43V22.4039H136.978ZM150.03 9.83989H161.334V12.8639H154.098V22.5119H159.966V25.3919H154.098V36.0839H161.406V38.9999H150.03V9.83989ZM171.566 39.3239C169.118 39.3239 167.246 38.5679 165.95 37.0559C164.678 35.5439 163.97 33.4679 163.826 30.8279L167.426 29.8559C167.546 31.7279 167.906 33.2399 168.506 34.3919C169.13 35.5439 170.15 36.1199 171.566 36.1199C172.622 36.1199 173.414 35.8319 173.942 35.2559C174.494 34.6559 174.77 33.8039 174.77 32.6999C174.77 31.4999 174.518 30.5039 174.014 29.7119C173.51 28.9199 172.706 28.0439 171.602 27.0839L166.706 22.7639C165.722 21.8999 165.002 20.9759 164.546 19.9919C164.114 18.9839 163.898 17.7599 163.898 16.3199C163.898 14.1839 164.51 12.5279 165.734 11.3519C166.958 10.1759 168.626 9.58789 170.738 9.58789C173.042 9.58789 174.782 10.1999 175.958 11.4239C177.134 12.6479 177.842 14.5439 178.082 17.1119L174.626 18.0479C174.506 16.3439 174.17 15.0359 173.618 14.1239C173.09 13.1879 172.13 12.7199 170.738 12.7199C169.706 12.7199 168.914 12.9959 168.362 13.5479C167.81 14.0759 167.534 14.8679 167.534 15.9239C167.534 16.7879 167.678 17.5199 167.966 18.1199C168.254 18.6959 168.746 19.2839 169.442 19.8839L174.374 24.2039C175.646 25.3319 176.654 26.5559 177.398 27.8759C178.166 29.1959 178.55 30.6959 178.55 32.3759C178.55 34.5119 177.902 36.2039 176.606 37.4519C175.31 38.6999 173.63 39.3239 171.566 39.3239ZM188.582 39.3239C186.134 39.3239 184.262 38.5679 182.966 37.0559C181.694 35.5439 180.986 33.4679 180.842 30.8279L184.442 29.8559C184.562 31.7279 184.922 33.2399 185.522 34.3919C186.146 35.5439 187.166 36.1199 188.582 36.1199C189.638 36.1199 190.43 35.8319 190.958 35.2559C191.51 34.6559 191.786 33.8039 191.786 32.6999C191.786 31.4999 191.534 30.5039 191.03 29.7119C190.526 28.9199 189.722 28.0439 188.618 27.0839L183.722 22.7639C182.738 21.8999 182.018 20.9759 181.562 19.9919C181.13 18.9839 180.914 17.7599 180.914 16.3199C180.914 14.1839 181.526 12.5279 182.75 11.3519C183.974 10.1759 185.642 9.58789 187.754 9.58789C190.058 9.58789 191.798 10.1999 192.974 11.4239C194.15 12.6479 194.858 14.5439 195.098 17.1119L191.642 18.0479C191.522 16.3439 191.186 15.0359 190.634 14.1239C190.106 13.1879 189.146 12.7199 187.754 12.7199C186.722 12.7199 185.93 12.9959 185.378 13.5479C184.826 14.0759 184.55 14.8679 184.55 15.9239C184.55 16.7879 184.694 17.5199 184.982 18.1199C185.27 18.6959 185.762 19.2839 186.458 19.8839L191.39 24.2039C192.662 25.3319 193.67 26.5559 194.414 27.8759C195.182 29.1959 195.566 30.6959 195.566 32.3759C195.566 34.5119 194.918 36.2039 193.622 37.4519C192.326 38.6999 190.646 39.3239 188.582 39.3239Z" fill="white"/>
<path d="M0 1.5H80" stroke="white" stroke-width="3"/>
<path d="M0 44.5H80" stroke="white" stroke-width="3"/>
</svg>
